<?xml version="1.0" encoding="UTF-8" ?>
<!DOCTYPE svg PUBLIC "-//W3C//DTD SVG 1.1//EN" "http://www.w3.org/Graphics/SVG/1.1/DTD/svg11.dtd">
<svg width="512px" height="512px" viewBox="0 0 512 512" version="1.1" xmlns="http://www.w3.org/2000/svg">
<g id="#000">
<path fill="#000" opacity="1.00" d=" M 221.37 20.39 C 242.07 8.40 269.02 8.36 289.77 20.25 C 339.95 49.09 390.11 77.96 440.30 106.79 C 449.61 111.72 457.95 118.55 464.19 127.07 C 448.64 136.24 432.96 145.16 417.32 154.18 C 412.06 147.81 405.54 142.64 398.26 138.77 C 359.52 116.49 320.80 94.16 282.02 71.96 C 263.82 61.85 240.41 63.75 223.40 75.45 C 185.57 97.24 147.77 119.08 109.95 140.88 C 103.82 144.28 99.08 149.49 94.17 154.36 C 78.67 145.50 63.30 136.41 47.72 127.68 C 52.93 119.42 60.82 113.06 69.19 108.17 C 119.92 78.91 170.63 49.63 221.37 20.39 Z" />
<path fill="#000" opacity="1.00" d=" M 427.12 172.93 C 442.75 163.86 458.45 154.89 474.07 145.80 C 477.30 153.75 478.49 162.45 478.26 171.00 C 478.23 229.67 478.26 288.33 478.25 347.00 C 477.74 370.23 464.40 392.61 444.32 404.26 C 393.34 433.62 342.32 462.93 291.32 492.25 C 284.76 496.17 277.49 498.95 269.98 500.35 C 269.18 500.31 267.57 500.24 266.77 500.20 C 266.63 482.55 266.24 464.82 266.95 447.20 C 271.94 444.94 277.61 444.28 282.32 441.28 C 322.35 418.31 362.34 395.29 402.34 372.27 C 419.08 362.44 429.84 343.46 429.67 324.03 C 430.07 286.02 429.73 248.01 429.84 210.00 C 429.64 197.63 430.79 184.93 427.12 172.93 Z" />
<path fill="#000" opacity="1.00" d=" M 33.75 167.00 C 33.86 159.89 35.26 152.83 37.69 146.16 C 53.25 155.07 68.75 164.07 84.30 173.00 C 83.32 177.95 82.18 182.92 82.16 187.99 C 82.15 233.66 82.18 279.33 82.14 324.99 C 82.10 344.41 93.12 363.39 110.03 372.93 C 149.34 395.64 188.67 418.31 227.99 440.99 C 233.25 444.00 239.05 445.94 244.99 447.12 C 245.02 465.10 244.99 483.08 245.00 501.07 C 236.42 499.75 228.06 496.93 220.56 492.54 C 170.68 463.77 120.80 435.00 70.94 406.22 C 49.17 394.94 34.22 371.58 33.75 346.99 C 33.74 287.00 33.76 227.00 33.75 167.00 Z" />
</g>
<g id="#a5de37ff">
<path fill="#a5de37" opacity="1.00" d=" M 223.40 75.45 C 240.41 63.75 263.82 61.85 282.02 71.96 C 320.80 94.16 359.52 116.49 398.26 138.77 C 405.54 142.64 412.06 147.81 417.32 154.18 C 376.33 177.92 335.25 201.52 294.24 225.24 C 279.18 233.58 265.00 244.52 255.79 259.31 C 246.48 245.68 233.75 234.63 219.38 226.59 C 177.63 202.53 135.91 178.44 94.17 154.36 C 99.08 149.49 103.82 144.28 109.95 140.88 C 147.77 119.08 185.57 97.24 223.40 75.45 Z" />
<path fill="#a5de37" opacity="1.00" d=" M 84.30 173.00 C 126.71 197.51 169.17 221.92 211.56 246.45 C 223.58 254.53 234.65 265.09 240.31 278.67 C 243.76 286.99 244.92 296.06 245.01 305.00 C 244.98 352.37 245.02 399.75 244.99 447.12 C 239.05 445.94 233.25 444.00 227.99 440.99 C 188.67 418.31 149.34 395.64 110.03 372.93 C 93.12 363.39 82.10 344.41 82.14 324.99 C 82.18 279.33 82.15 233.66 82.16 187.99 C 82.18 182.92 83.32 177.95 84.30 173.00 Z" />
<path fill="#a5de37" opacity="1.00" d=" M 299.57 246.51 C 342.08 221.97 384.59 197.44 427.12 172.93 C 430.79 184.93 429.64 197.63 429.84 210.00 C 429.73 248.01 430.07 286.02 429.67 324.03 C 429.84 343.46 419.08 362.44 402.34 372.27 C 362.34 395.29 322.35 418.31 282.32 441.28 C 277.61 444.28 271.94 444.94 266.95 447.20 C 266.24 464.82 266.63 482.55 266.77 500.20 C 267.57 500.24 269.18 500.31 269.98 500.35 C 268.71 500.60 267.43 500.83 266.16 501.06 C 266.31 435.38 266.23 369.69 266.25 304.00 C 266.36 292.98 268.51 281.75 274.13 272.15 C 280.31 261.66 289.53 253.24 299.57 246.51 Z" />
</g>
</svg>
