<svg xmlns="http://www.w3.org/2000/svg" viewBox="0 0 412.1 74"><style>.st4{fill:#fff}.st5{fill:#a5de37}.st6{fill:#000}</style><g id="Ebene_1"><path class="st5" d="M34.9 43.9v20.6c.9-.2 1.7-.4 2.5-.9l17.1-9.8c2.5-1.4 4-4.1 4-7V27.3c0-.8-.1-1.6-.4-2.3L39.6 35.7c-3.9 2.7-4.7 5.2-4.7 8.2z"/><path class="st6" d="M64.9 21l-6.8 3.9c.2.7.4 1.5.4 2.3v19.6c0 2.9-1.6 5.6-4 7l-17.1 9.8c-.8.4-1.6.7-2.5.9v7.8c1.2-.2 2.4-.6 3.4-1.2l22.2-12.7c3.1-1.8 5-5.1 5-8.7V24.3c0-1.1-.2-2.2-.6-3.3z"/><path class="st5" d="M33.3 37.4c1-1.6 2.5-3.1 4.7-4.4l18.7-10.8c-.6-.8-1.4-1.5-2.2-2l-17.1-9.8c-2.5-1.4-5.6-1.4-8.1 0l-17 9.8c-.9.5-1.6 1.2-2.3 2L28.6 33c2.2 1.4 3.7 2.8 4.7 4.4z"/><path class="st6" d="M12.3 20.3l17-9.8c2.5-1.4 5.6-1.4 8.1 0l17.1 9.8c.9.5 1.6 1.2 2.2 2l6.8-3.9c-.8-1.1-1.8-2-3-2.6L38.3 2.9c-3.1-1.8-6.9-1.8-10 0l-22 12.8c-1.2.7-2.2 1.6-3 2.7l6.8 3.9c.5-.8 1.3-1.5 2.2-2zM29.3 63.6l-17-9.8c-2.5-1.4-4-4.1-4-7V27.2c0-.8.1-1.5.3-2.2l-6.8-3.9c-.4 1.1-.6 2.1-.6 3.2v25.5c0 3.6 1.9 6.9 5 8.6l22.1 12.7c1 .6 2.2 1 3.4 1.2v-7.8c-.8-.1-1.6-.4-2.4-.9z"/><path class="st5" d="M27 35.6L8.6 25c-.2.7-.3 1.5-.3 2.2v19.6c0 2.9 1.5 5.6 4 7l17 9.8c.8.4 1.6.7 2.5.9V43.9c-.1-3-.9-5.5-4.8-8.3zM267.6 19.4H287v7.7h-10.6v5.3h10.3v7.7h-10.3V46H287v7.7h-19.4V19.4zM294.3 33.8h-3.8V28h3.8v-8.5h7.7V28h3.7v5.8H302v19.8h-7.7V33.8zM334.5 43.9c-1.4 5.8-6.5 10.6-13.4 10.6-7.8 0-13.7-6.1-13.7-13.7 0-7.5 5.9-13.6 13.5-13.6 6.8 0 12.3 4.5 13.6 10.8h-7.8c-.8-1.8-2.4-3.6-5.5-3.6-1.8-.1-3.3.6-4.4 1.8-1.1 1.2-1.7 2.9-1.7 4.7 0 3.7 2.4 6.5 6.1 6.5 3.2 0 4.7-1.8 5.5-3.4h7.8zM338 19.4h7.7v10.9c1.4-2.3 4-3.2 6.7-3.2 3.9 0 6.2 1.4 7.6 3.6 1.4 2.2 1.8 5.3 1.8 8.5v14.3h-7.7v-14c0-1.4-.2-2.8-.8-3.7-.6-1-1.7-1.6-3.3-1.6-2.1 0-3.2 1-3.7 2.1-.6 1.1-.6 2.4-.6 3v14.2H338V19.4zM373.5 43.5c.3 2.7 2.9 4.5 5.9 4.5 2.4 0 3.7-1.1 4.7-2.4h7.9c-1.2 2.9-3 5.1-5.2 6.6-2.1 1.5-4.7 2.3-7.3 2.3-7.3 0-13.6-6-13.6-13.6 0-7.2 5.6-13.8 13.4-13.8 3.9 0 7.3 1.5 9.7 4.1 3.2 3.5 4.2 7.6 3.6 12.3h-19.1zm11.5-5.9c-.2-1.2-1.8-4.1-5.7-4.1-4 0-5.5 2.9-5.7 4.1H385zM397 28h7.2v2.9c.7-1.4 2.1-3.7 6.5-3.7v7.7h-.3c-3.9 0-5.8 1.4-5.8 5v13.8H397V28z"/></g></svg>
